<svg width="636" height="170" viewBox="0 0 636 170" fill="none" xmlns="http://www.w3.org/2000/svg">
<path d="M33.672 72V60.384H25.032V16.608H33.672V4.992H1.8V16.608H10.44V60.384H1.8V72H33.672ZM59.2695 72V39.36C59.2695 34.368 63.7815 31.968 68.3895 31.968C73.5735 31.968 75.3975 35.136 75.3975 41.568V72H89.6055V40.416C89.6055 27.744 84.1335 20.448 73.8615 20.448C65.8935 20.448 61.6695 24.864 59.8455 30.144H59.2695V21.6H45.0615V72H59.2695ZM104.745 72H118.953V32.64H129.033V21.6H118.953V12H129.033V0.959999H119.817C110.025 0.959999 104.745 5.952 104.745 15.648V21.6H97.641V32.64H104.745V72ZM151.145 72V42.528C151.145 36.672 155.177 34.848 163.433 34.848H166.985V21.6H164.489C156.617 21.6 152.777 26.976 151.625 32.544H151.145V21.6H136.937V72H151.145ZM219.557 72V60.96H214.853V38.88C214.853 26.976 207.557 20.448 193.349 20.448C182.789 20.448 177.029 24.096 172.997 30.048L181.445 37.536C183.653 34.464 186.629 31.584 192.293 31.584C198.245 31.584 200.645 34.656 200.645 39.552V42.72H192.677C179.333 42.72 171.077 47.808 171.077 58.464C171.077 67.2 176.645 73.152 186.725 73.152C194.405 73.152 199.973 69.696 201.509 63.168H202.085C202.949 68.544 206.597 72 211.685 72H219.557ZM192.005 63.264C187.781 63.264 185.381 61.536 185.381 57.888V56.448C185.381 52.8 188.261 50.784 193.733 50.784H200.645V56.736C200.645 61.344 196.709 63.264 192.005 63.264ZM246.181 73.152C259.141 73.152 267.781 66.048 267.781 56.352C267.781 47.616 262.117 42.624 251.173 41.184L245.509 40.416C241.381 39.84 240.229 38.4 240.229 35.712C240.229 33.216 242.149 31.488 246.949 31.488C251.173 31.488 255.397 33.504 258.565 36.672L266.725 28.32C261.637 23.328 256.741 20.448 246.181 20.448C234.181 20.448 226.597 27.168 226.597 36.864C226.597 45.984 232.165 50.976 243.589 52.416L249.061 53.088C252.613 53.568 254.149 54.816 254.149 57.312C254.149 60.288 252.229 62.112 246.661 62.112C241.189 62.112 236.869 59.616 233.317 55.68L224.965 64.128C230.149 69.888 236.485 73.152 246.181 73.152ZM302.83 72V60.96H293.614V32.64H303.598V21.6H293.614V7.96799H280.846V16.224C280.846 19.68 279.694 21.6 275.854 21.6H272.302V32.64H279.406V57.312C279.406 66.912 284.59 72 294.382 72H302.83ZM327.676 72V42.528C327.676 36.672 331.708 34.848 339.964 34.848H343.516V21.6H341.02C333.148 21.6 329.308 26.976 328.156 32.544H327.676V21.6H313.468V72H327.676ZM382.04 72H396.248V21.6H382.04V54.336C382.04 59.136 377.528 61.632 373.112 61.632C367.928 61.632 365.912 58.176 365.912 52.032V21.6H351.704V53.28C351.704 65.952 357.176 73.152 367.448 73.152C375.704 73.152 379.832 68.64 381.56 63.552H382.04V72ZM429.82 73.152C439.708 73.152 446.908 68.832 450.268 59.232L439.228 54.432C437.788 58.464 435.484 61.92 429.82 61.92C424.06 61.92 421.084 57.888 421.084 51.552V42.144C421.084 35.808 424.06 31.68 429.82 31.68C434.812 31.68 437.596 34.752 438.46 38.592L449.98 33.6C447.004 25.344 439.996 20.448 429.82 20.448C414.652 20.448 406.3 30.624 406.3 46.752C406.3 62.88 414.652 73.152 429.82 73.152ZM485.174 72V60.96H475.958V32.64H485.942V21.6H475.958V7.96799H463.19V16.224C463.19 19.68 462.038 21.6 458.198 21.6H454.646V32.64H461.75V57.312C461.75 66.912 466.934 72 476.726 72H485.174ZM525.572 72H539.78V21.6H525.572V54.336C525.572 59.136 521.06 61.632 516.644 61.632C511.46 61.632 509.444 58.176 509.444 52.032V21.6H495.236V53.28C495.236 65.952 500.708 73.152 510.98 73.152C519.236 73.152 523.364 68.64 525.092 63.552H525.572V72ZM567.207 72V42.528C567.207 36.672 571.239 34.848 579.495 34.848H583.047V21.6H580.551C572.679 21.6 568.839 26.976 567.687 32.544H567.207V21.6H552.999V72H567.207ZM612.367 73.152C621.583 73.152 628.975 69.984 633.487 64.8L626.383 55.968C623.215 59.232 619.951 62.016 613.999 62.016C606.415 62.016 602.863 57.792 602.863 51.168V50.4H635.215V46.176C635.215 32.544 628.495 20.448 611.791 20.448C596.623 20.448 588.175 30.816 588.175 46.752C588.175 62.88 596.911 73.152 612.367 73.152ZM612.079 30.912C617.743 30.912 620.527 35.04 620.527 41.184V42.048H602.863V41.28C602.863 35.04 606.415 30.912 612.079 30.912ZM26.088 169.152C42.792 169.152 52.2 160.224 52.2 147.36C52.2 135.84 45.576 129.696 31.848 127.488L25.224 126.432C19.656 125.568 17.256 123.84 17.256 119.232C17.256 115.2 20.424 112.704 26.952 112.704C33.864 112.704 38.184 115.296 41.352 119.04L51.048 109.248C45.576 103.2 37.896 99.84 27.816 99.84C12.072 99.84 2.664 108.192 2.664 120.192C2.664 131.424 9.096 138.336 23.208 140.16L29.832 141.024C36.072 141.888 37.608 144.576 37.608 148.224C37.608 153.12 34.152 156.288 27.048 156.288C20.52 156.288 14.76 153.696 10.248 148.608L0.648 158.304C6.408 164.64 14.376 169.152 26.088 169.152ZM89.1735 168V156.96H79.9575V128.64H89.9415V117.6H79.9575V103.968H67.1895V112.224C67.1895 115.68 66.0375 117.6 62.1975 117.6H58.6455V128.64H65.7495V153.312C65.7495 162.912 70.9335 168 80.7255 168H89.1735ZM129.572 168H143.78V117.6H129.572V150.336C129.572 155.136 125.06 157.632 120.644 157.632C115.46 157.632 113.444 154.176 113.444 148.032V117.6H99.2355V149.28C99.2355 161.952 104.708 169.152 114.98 169.152C123.236 169.152 127.364 164.64 129.092 159.552H129.572V168ZM159.495 168H173.703V128.64H183.783V117.6H173.703V108H183.783V96.96H174.567C164.775 96.96 159.495 101.952 159.495 111.648V117.6H152.391V128.64H159.495V168ZM194.558 168H208.766V128.64H218.846V117.6H208.766V108H218.846V96.96H209.63C199.838 96.96 194.558 101.952 194.558 111.648V117.6H187.454V128.64H194.558V168Z" fill="url(#paint0_linear_5005_546229)"/>
<defs>
<linearGradient id="paint0_linear_5005_546229" x1="-3" y1="64.032" x2="639" y2="64.032" gradientUnits="userSpaceOnUse">
<stop stop-color="#4F46E5"/>
<stop offset="1" stop-color="#C7D2FE"/>
</linearGradient>
</defs>
</svg>
