<svg width="642" height="642" viewBox="0 0 642 642" fill="none" xmlns="http://www.w3.org/2000/svg">
<path d="M36.672 213V201.384H28.032V157.608H36.672V145.992H4.8V157.608H13.44V201.384H4.8V213H36.672ZM62.2695 213V180.36C62.2695 175.368 66.7815 172.968 71.3895 172.968C76.5735 172.968 78.3975 176.136 78.3975 182.568V213H92.6055V181.416C92.6055 168.744 87.1335 161.448 76.8615 161.448C68.8935 161.448 64.6695 165.864 62.8455 171.144H62.2695V162.6H48.0615V213H62.2695ZM107.745 213H121.953V173.64H132.033V162.6H121.953V153H132.033V141.96H122.817C113.025 141.96 107.745 146.952 107.745 156.648V162.6H100.641V173.64H107.745V213ZM154.145 213V183.528C154.145 177.672 158.177 175.848 166.433 175.848H169.985V162.6H167.489C159.617 162.6 155.777 167.976 154.625 173.544H154.145V162.6H139.937V213H154.145ZM222.557 213V201.96H217.853V179.88C217.853 167.976 210.557 161.448 196.349 161.448C185.789 161.448 180.029 165.096 175.997 171.048L184.445 178.536C186.653 175.464 189.629 172.584 195.293 172.584C201.245 172.584 203.645 175.656 203.645 180.552V183.72H195.677C182.333 183.72 174.077 188.808 174.077 199.464C174.077 208.2 179.645 214.152 189.725 214.152C197.405 214.152 202.973 210.696 204.509 204.168H205.085C205.949 209.544 209.597 213 214.685 213H222.557ZM195.005 204.264C190.781 204.264 188.381 202.536 188.381 198.888V197.448C188.381 193.8 191.261 191.784 196.733 191.784H203.645V197.736C203.645 202.344 199.709 204.264 195.005 204.264ZM249.181 214.152C262.141 214.152 270.781 207.048 270.781 197.352C270.781 188.616 265.117 183.624 254.173 182.184L248.509 181.416C244.381 180.84 243.229 179.4 243.229 176.712C243.229 174.216 245.149 172.488 249.949 172.488C254.173 172.488 258.397 174.504 261.565 177.672L269.725 169.32C264.637 164.328 259.741 161.448 249.181 161.448C237.181 161.448 229.597 168.168 229.597 177.864C229.597 186.984 235.165 191.976 246.589 193.416L252.061 194.088C255.613 194.568 257.149 195.816 257.149 198.312C257.149 201.288 255.229 203.112 249.661 203.112C244.189 203.112 239.869 200.616 236.317 196.68L227.965 205.128C233.149 210.888 239.485 214.152 249.181 214.152ZM305.83 213V201.96H296.614V173.64H306.598V162.6H296.614V148.968H283.846V157.224C283.846 160.68 282.694 162.6 278.854 162.6H275.302V173.64H282.406V198.312C282.406 207.912 287.59 213 297.382 213H305.83ZM330.676 213V183.528C330.676 177.672 334.708 175.848 342.964 175.848H346.516V162.6H344.02C336.148 162.6 332.308 167.976 331.156 173.544H330.676V162.6H316.468V213H330.676ZM385.04 213H399.248V162.6H385.04V195.336C385.04 200.136 380.528 202.632 376.112 202.632C370.928 202.632 368.912 199.176 368.912 193.032V162.6H354.704V194.28C354.704 206.952 360.176 214.152 370.448 214.152C378.704 214.152 382.832 209.64 384.56 204.552H385.04V213ZM432.82 214.152C442.708 214.152 449.908 209.832 453.268 200.232L442.228 195.432C440.788 199.464 438.484 202.92 432.82 202.92C427.06 202.92 424.084 198.888 424.084 192.552V183.144C424.084 176.808 427.06 172.68 432.82 172.68C437.812 172.68 440.596 175.752 441.46 179.592L452.98 174.6C450.004 166.344 442.996 161.448 432.82 161.448C417.652 161.448 409.3 171.624 409.3 187.752C409.3 203.88 417.652 214.152 432.82 214.152ZM488.174 213V201.96H478.958V173.64H488.942V162.6H478.958V148.968H466.19V157.224C466.19 160.68 465.038 162.6 461.198 162.6H457.646V173.64H464.75V198.312C464.75 207.912 469.934 213 479.726 213H488.174ZM528.572 213H542.78V162.6H528.572V195.336C528.572 200.136 524.06 202.632 519.644 202.632C514.46 202.632 512.444 199.176 512.444 193.032V162.6H498.236V194.28C498.236 206.952 503.708 214.152 513.98 214.152C522.236 214.152 526.364 209.64 528.092 204.552H528.572V213ZM570.207 213V183.528C570.207 177.672 574.239 175.848 582.495 175.848H586.047V162.6H583.551C575.679 162.6 571.839 167.976 570.687 173.544H570.207V162.6H555.999V213H570.207ZM615.367 214.152C624.583 214.152 631.975 210.984 636.487 205.8L629.383 196.968C626.215 200.232 622.951 203.016 616.999 203.016C609.415 203.016 605.863 198.792 605.863 192.168V191.4H638.215V187.176C638.215 173.544 631.495 161.448 614.791 161.448C599.623 161.448 591.175 171.816 591.175 187.752C591.175 203.88 599.911 214.152 615.367 214.152ZM615.079 171.912C620.743 171.912 623.527 176.04 623.527 182.184V183.048H605.863V182.28C605.863 176.04 609.415 171.912 615.079 171.912ZM29.088 310.152C45.792 310.152 55.2 301.224 55.2 288.36C55.2 276.84 48.576 270.696 34.848 268.488L28.224 267.432C22.656 266.568 20.256 264.84 20.256 260.232C20.256 256.2 23.424 253.704 29.952 253.704C36.864 253.704 41.184 256.296 44.352 260.04L54.048 250.248C48.576 244.2 40.896 240.84 30.816 240.84C15.072 240.84 5.664 249.192 5.664 261.192C5.664 272.424 12.096 279.336 26.208 281.16L32.832 282.024C39.072 282.888 40.608 285.576 40.608 289.224C40.608 294.12 37.152 297.288 30.048 297.288C23.52 297.288 17.76 294.696 13.248 289.608L3.648 299.304C9.408 305.64 17.376 310.152 29.088 310.152ZM92.1735 309V297.96H82.9575V269.64H92.9415V258.6H82.9575V244.968H70.1895V253.224C70.1895 256.68 69.0375 258.6 65.1975 258.6H61.6455V269.64H68.7495V294.312C68.7495 303.912 73.9335 309 83.7255 309H92.1735ZM132.572 309H146.78V258.6H132.572V291.336C132.572 296.136 128.06 298.632 123.644 298.632C118.46 298.632 116.444 295.176 116.444 289.032V258.6H102.236V290.28C102.236 302.952 107.708 310.152 117.98 310.152C126.236 310.152 130.364 305.64 132.092 300.552H132.572V309ZM162.495 309H176.703V269.64H186.783V258.6H176.703V249H186.783V237.96H177.567C167.775 237.96 162.495 242.952 162.495 252.648V258.6H155.391V269.64H162.495V309ZM197.558 309H211.766V269.64H221.846V258.6H211.766V249H221.846V237.96H212.63C202.838 237.96 197.558 242.952 197.558 252.648V258.6H190.454V269.64H197.558V309Z" fill="url(#paint0_linear_5005_546232)"/>
<path d="M2.88 436H8.46L10.656 422.356H10.98L13.14 436H18.72L21.096 417.424H17.424L15.804 432.76H15.48L12.996 417.424H8.784L6.264 432.76H5.94L4.356 417.424H0.504L2.88 436ZM33.5379 414.544C35.6979 414.544 36.4899 413.5 36.4899 412.204V411.34C36.4899 410.044 35.6979 409 33.5379 409C31.3779 409 30.5859 410.044 30.5859 411.34V412.204C30.5859 413.5 31.3779 414.544 33.5379 414.544ZM25.1139 436H41.5299V432.364H35.8419V417.424H25.1139V421.06H31.2339V432.364H25.1139V436ZM62.2159 436V432.364H54.6559V421.06H62.2159V417.424H54.6559V410.872H50.3719V415.372C50.3719 416.92 49.7959 417.424 48.3199 417.424H44.6479V421.06H50.0479V430.96C50.0479 433.912 51.7039 436 55.2319 436H62.2159ZM67.4578 436H72.0658V423.58C72.0658 421.6 73.8658 420.628 75.7378 420.628C78.0418 420.628 79.2298 421.996 79.2298 424.66V436H83.8378V424.012C83.8378 419.512 81.3178 416.992 77.6818 416.992C74.6578 416.992 73.0738 418.684 72.2458 420.7H72.0658V409.36H67.4578V436ZM123.698 436H127.802V410.872H122.546L119.018 420.124H118.766L115.274 410.872H109.658V436H113.762V424.372L113.546 417.1H113.87L118.73 430.024L123.59 417.1H123.914L123.698 424.372V436ZM149.856 436V432.544H147.66V423.796C147.66 419.332 144.708 416.992 139.848 416.992C135.816 416.992 133.224 418.612 132.072 420.664L134.7 422.896C135.708 421.456 137.04 420.448 139.38 420.448C141.936 420.448 143.052 421.672 143.052 424.012V425.236H139.776C134.304 425.236 131.532 427.108 131.532 430.852C131.532 434.344 133.944 436.432 137.652 436.432C140.532 436.432 142.584 435.1 143.268 432.796H143.448C143.664 434.776 144.924 436 147.156 436H149.856ZM139.2 433.264C137.292 433.264 136.104 432.472 136.104 430.996V430.276C136.104 428.728 137.364 427.9 139.884 427.9H143.052V430.384C143.052 432.148 141.396 433.264 139.2 433.264ZM153.802 436H169.462V432.364H163.018V426.1C163.018 423.724 164.566 421.744 167.482 421.744H171.298V417.424H169.282C165.574 417.424 163.99 419.872 163.306 422.5H163.018V417.424H153.802V421.06H158.41V432.364H153.802V436ZM191.732 436V432.364H184.172V421.06H191.732V417.424H184.172V410.872H179.888V415.372C179.888 416.92 179.312 417.424 177.836 417.424H174.164V421.06H179.564V430.96C179.564 433.912 181.22 436 184.748 436H191.732ZM206.225 414.544C208.385 414.544 209.177 413.5 209.177 412.204V411.34C209.177 410.044 208.385 409 206.225 409C204.065 409 203.273 410.044 203.273 411.34V412.204C203.273 413.5 204.065 414.544 206.225 414.544ZM197.801 436H214.217V432.364H208.529V417.424H197.801V421.06H203.921V432.364H197.801V436ZM223.167 436V423.58C223.167 421.6 224.967 420.628 226.839 420.628C229.143 420.628 230.331 421.996 230.331 424.66V436H234.939V424.012C234.939 419.512 232.419 416.992 228.783 416.992C225.759 416.992 224.175 418.684 223.347 420.7H223.167V417.424H218.559V436H223.167ZM270.479 436.432C275.483 436.432 277.967 433.624 279.047 429.7L274.727 428.476C274.079 430.816 273.107 432.58 270.407 432.58C267.167 432.58 265.835 429.916 265.835 425.596V421.276C265.835 416.956 267.167 414.292 270.407 414.292C273.107 414.292 274.079 416.056 274.727 418.396L279.047 417.172C277.967 413.248 275.483 410.44 270.479 410.44C263.927 410.44 260.831 415.156 260.831 423.436C260.831 431.716 263.927 436.432 270.479 436.432ZM300.957 436V432.544H298.761V423.796C298.761 419.332 295.809 416.992 290.949 416.992C286.917 416.992 284.325 418.612 283.173 420.664L285.801 422.896C286.809 421.456 288.141 420.448 290.481 420.448C293.037 420.448 294.153 421.672 294.153 424.012V425.236H290.877C285.405 425.236 282.633 427.108 282.633 430.852C282.633 434.344 285.045 436.432 288.753 436.432C291.633 436.432 293.685 435.1 294.369 432.796H294.549C294.765 434.776 296.025 436 298.257 436H300.957ZM290.301 433.264C288.393 433.264 287.205 432.472 287.205 430.996V430.276C287.205 428.728 288.465 427.9 290.985 427.9H294.153V430.384C294.153 432.148 292.497 433.264 290.301 433.264ZM312.931 436.432C318.187 436.432 321.319 434.092 321.319 430.276C321.319 426.604 318.367 425.416 315.235 424.948L312.283 424.48C310.771 424.264 309.691 423.868 309.691 422.536C309.691 421.096 310.915 420.34 313.219 420.34C315.883 420.34 317.611 421.384 318.655 422.536L321.067 419.872C319.447 418.072 316.927 416.992 313.363 416.992C308.323 416.992 305.191 419.152 305.191 423.004C305.191 426.676 308.143 427.9 311.239 428.368L314.227 428.836C315.739 429.052 316.783 429.412 316.783 430.744C316.783 432.328 315.271 433.084 312.967 433.084C310.339 433.084 308.359 432.112 306.847 430.456L304.147 432.904C305.803 435.064 308.863 436.432 312.931 436.432ZM344.129 436V432.544H341.933V423.796C341.933 419.332 338.981 416.992 334.121 416.992C330.089 416.992 327.497 418.612 326.345 420.664L328.973 422.896C329.981 421.456 331.313 420.448 333.653 420.448C336.209 420.448 337.325 421.672 337.325 424.012V425.236H334.049C328.577 425.236 325.805 427.108 325.805 430.852C325.805 434.344 328.217 436.432 331.925 436.432C334.805 436.432 336.857 435.1 337.541 432.796H337.721C337.937 434.776 339.197 436 341.429 436H344.129ZM333.473 433.264C331.565 433.264 330.377 432.472 330.377 430.996V430.276C330.377 428.728 331.637 427.9 334.157 427.9H337.325V430.384C337.325 432.148 335.669 433.264 333.473 433.264ZM359.883 436H364.491V409.36H359.883V420.7H359.631C358.623 418.468 356.931 416.992 354.087 416.992C349.839 416.992 346.995 420.16 346.995 426.712C346.995 433.264 349.839 436.432 354.087 436.432C356.931 436.432 358.623 434.956 359.631 432.724H359.883V436ZM356.031 432.76C353.367 432.76 351.819 430.996 351.819 428.188V425.236C351.819 422.428 353.367 420.664 356.031 420.664C358.119 420.664 359.883 421.672 359.883 423.796V429.628C359.883 431.752 358.119 432.76 356.031 432.76ZM377.761 436.432C383.377 436.432 386.833 432.688 386.833 426.712C386.833 420.736 383.377 416.992 377.761 416.992C372.145 416.992 368.689 420.736 368.689 426.712C368.689 432.688 372.145 436.432 377.761 436.432ZM377.761 432.904C375.133 432.904 373.477 431.248 373.477 428.152V425.272C373.477 422.176 375.133 420.52 377.761 420.52C380.389 420.52 382.045 422.176 382.045 425.272V428.152C382.045 431.248 380.389 432.904 377.761 432.904ZM395.027 441.328H398.519L403.235 430.132H397.043L395.027 441.328ZM452.419 414.76V410.872H432.619V414.76H440.179V436H444.859V414.76H452.419ZM465.257 414.544C467.417 414.544 468.209 413.5 468.209 412.204V411.34C468.209 410.044 467.417 409 465.257 409C463.097 409 462.305 410.044 462.305 411.34V412.204C462.305 413.5 463.097 414.544 465.257 414.544ZM456.833 436H473.249V432.364H467.561V417.424H456.833V421.06H462.953V432.364H456.833V436ZM480.039 436V422.644C480.039 421.168 480.867 420.448 482.019 420.448C483.207 420.448 483.783 421.204 483.783 423.364V436H487.599V422.644C487.599 421.168 488.427 420.448 489.543 420.448C490.731 420.448 491.343 421.204 491.343 423.364V436H495.123V422.824C495.123 419.008 493.971 416.992 491.271 416.992C489.003 416.992 487.923 418.396 487.275 420.088H487.095C486.771 418.144 485.655 416.992 483.783 416.992C481.803 416.992 480.831 418.324 480.255 419.98H480.039V417.424H476.223V436H480.039ZM529.511 436.432C534.515 436.432 536.999 433.624 538.079 429.7L533.759 428.476C533.111 430.816 532.139 432.58 529.439 432.58C526.199 432.58 524.867 429.916 524.867 425.596V421.276C524.867 416.956 526.199 414.292 529.439 414.292C532.139 414.292 533.111 416.056 533.759 418.396L538.079 417.172C536.999 413.248 534.515 410.44 529.511 410.44C522.959 410.44 519.863 415.156 519.863 423.436C519.863 431.716 522.959 436.432 529.511 436.432ZM542.348 436H546.956V423.58C546.956 421.6 548.756 420.628 550.628 420.628C552.932 420.628 554.12 421.996 554.12 424.66V436H558.728V424.012C558.728 419.512 556.208 416.992 552.572 416.992C549.548 416.992 547.964 418.684 547.136 420.7H546.956V409.36H542.348V436ZM572.466 436.432C576.39 436.432 578.946 434.812 580.278 432.868L577.65 430.24C576.534 431.788 574.878 432.796 572.61 432.796C569.586 432.796 567.822 430.96 567.822 428.296V427.828H580.854V426.316C580.854 420.7 577.47 416.992 572.106 416.992C566.67 416.992 563.214 420.736 563.214 426.748C563.214 432.688 566.526 436.432 572.466 436.432ZM572.142 420.376C574.662 420.376 576.246 422.104 576.246 424.768V425.092H567.822V424.84C567.822 422.176 569.55 420.376 572.142 420.376ZM590.128 436V423.58C590.128 421.6 591.928 420.628 593.8 420.628C596.104 420.628 597.292 421.996 597.292 424.66V436H601.9V424.012C601.9 419.512 599.38 416.992 595.744 416.992C592.72 416.992 591.136 418.684 590.308 420.7H590.128V417.424H585.52V436H590.128ZM610.886 441.328H614.378L619.094 430.132H612.902L610.886 441.328ZM20.34 483V479.544H18.144V470.796C18.144 466.332 15.192 463.992 10.332 463.992C6.3 463.992 3.708 465.612 2.556 467.664L5.184 469.896C6.192 468.456 7.524 467.448 9.864 467.448C12.42 467.448 13.536 468.672 13.536 471.012V472.236H10.26C4.788 472.236 2.016 474.108 2.016 477.852C2.016 481.344 4.428 483.432 8.136 483.432C11.016 483.432 13.068 482.1 13.752 479.796H13.932C14.148 481.776 15.408 483 17.64 483H20.34ZM9.684 480.264C7.776 480.264 6.588 479.472 6.588 477.996V477.276C6.588 475.728 7.848 474.9 10.368 474.9H13.536V477.384C13.536 479.148 11.88 480.264 9.684 480.264ZM28.8939 483V470.58C28.8939 468.6 30.6939 467.628 32.5659 467.628C34.8699 467.628 36.0579 468.996 36.0579 471.66V483H40.6659V471.012C40.6659 466.512 38.1459 463.992 34.5099 463.992C31.4859 463.992 29.9019 465.684 29.0739 467.7H28.8939V464.424H24.2859V483H28.8939ZM57.6799 483H62.2879V456.36H57.6799V467.7H57.4279C56.4199 465.468 54.7279 463.992 51.8839 463.992C47.6359 463.992 44.7919 467.16 44.7919 473.712C44.7919 480.264 47.6359 483.432 51.8839 483.432C54.7279 483.432 56.4199 481.956 57.4279 479.724H57.6799V483ZM53.8279 479.76C51.1639 479.76 49.6159 477.996 49.6159 475.188V472.236C49.6159 469.428 51.1639 467.664 53.8279 467.664C55.9159 467.664 57.6799 468.672 57.6799 470.796V476.628C57.6799 478.752 55.9159 479.76 53.8279 479.76ZM107.512 483L100.42 457.872H93.8678L86.8118 483H91.5638L93.2918 476.628H100.744L102.508 483H107.512ZM99.9518 472.776H94.1198L96.8918 462.516H97.1798L99.9518 472.776ZM110.522 483H126.974V479.364H121.034V456.36H110.522V459.996H116.426V479.364H110.522V483ZM140.748 483.432C144.672 483.432 147.228 481.812 148.56 479.868L145.932 477.24C144.816 478.788 143.16 479.796 140.892 479.796C137.868 479.796 136.104 477.96 136.104 475.296V474.828H149.136V473.316C149.136 467.7 145.752 463.992 140.388 463.992C134.952 463.992 131.496 467.736 131.496 473.748C131.496 479.688 134.808 483.432 140.748 483.432ZM140.424 467.376C142.944 467.376 144.528 469.104 144.528 471.768V472.092H136.104V471.84C136.104 469.176 137.832 467.376 140.424 467.376ZM157.258 483L159.814 479.256L161.578 476.628H161.83L163.594 479.256L166.15 483H171.478L164.53 473.352L171.082 464.424H166.186L163.954 467.7L162.226 470.292H161.974L160.246 467.7L158.014 464.424H152.722L159.274 473.568L152.326 483H157.258ZM205.721 483.432C210.725 483.432 213.209 480.624 214.289 476.7L209.969 475.476C209.321 477.816 208.349 479.58 205.649 479.58C202.409 479.58 201.077 476.916 201.077 472.596V468.276C201.077 463.956 202.409 461.292 205.649 461.292C208.349 461.292 209.321 463.056 209.969 465.396L214.289 464.172C213.209 460.248 210.725 457.44 205.721 457.44C199.169 457.44 196.073 462.156 196.073 470.436C196.073 478.716 199.169 483.432 205.721 483.432ZM218.451 483H234.903V479.364H228.963V456.36H218.451V459.996H224.355V479.364H218.451V483ZM248.677 483.432C252.601 483.432 255.157 481.812 256.489 479.868L253.861 477.24C252.745 478.788 251.089 479.796 248.821 479.796C245.797 479.796 244.033 477.96 244.033 475.296V474.828H257.065V473.316C257.065 467.7 253.681 463.992 248.317 463.992C242.881 463.992 239.425 467.736 239.425 473.748C239.425 479.688 242.737 483.432 248.677 483.432ZM248.353 467.376C250.873 467.376 252.457 469.104 252.457 471.768V472.092H244.033V471.84C244.033 469.176 245.761 467.376 248.353 467.376ZM264.179 483V469.644C264.179 468.168 265.007 467.448 266.159 467.448C267.347 467.448 267.923 468.204 267.923 470.364V483H271.739V469.644C271.739 468.168 272.567 467.448 273.683 467.448C274.871 467.448 275.483 468.204 275.483 470.364V483H279.263V469.824C279.263 466.008 278.111 463.992 275.411 463.992C273.143 463.992 272.063 465.396 271.415 467.088H271.235C270.911 465.144 269.795 463.992 267.923 463.992C265.943 463.992 264.971 465.324 264.395 466.98H264.179V464.424H260.363V483H264.179ZM285.765 483V469.644C285.765 468.168 286.593 467.448 287.745 467.448C288.933 467.448 289.509 468.204 289.509 470.364V483H293.325V469.644C293.325 468.168 294.153 467.448 295.269 467.448C296.457 467.448 297.069 468.204 297.069 470.364V483H300.849V469.824C300.849 466.008 299.697 463.992 296.997 463.992C294.729 463.992 293.649 465.396 293.001 467.088H292.821C292.497 465.144 291.381 463.992 289.509 463.992C287.529 463.992 286.557 465.324 285.981 466.98H285.765V464.424H281.949V483H285.765ZM313.435 483.432C317.359 483.432 319.915 481.812 321.247 479.868L318.619 477.24C317.503 478.788 315.847 479.796 313.579 479.796C310.555 479.796 308.791 477.96 308.791 475.296V474.828H321.823V473.316C321.823 467.7 318.439 463.992 313.075 463.992C307.639 463.992 304.183 467.736 304.183 473.748C304.183 479.688 307.495 483.432 313.435 483.432ZM313.111 467.376C315.631 467.376 317.215 469.104 317.215 471.768V472.092H308.791V471.84C308.791 469.176 310.519 467.376 313.111 467.376ZM326.489 483H342.149V479.364H335.705V473.1C335.705 470.724 337.253 468.744 340.169 468.744H343.985V464.424H341.969C338.261 464.424 336.677 466.872 335.993 469.5H335.705V464.424H326.489V468.06H331.097V479.364H326.489V483Z" fill="#6B7280"/>
<defs>
<linearGradient id="paint0_linear_5005_546232" x1="4.59026e-06" y1="205.032" x2="642" y2="205.032" gradientUnits="userSpaceOnUse">
<stop stop-color="#4F46E5"/>
<stop offset="1" stop-color="#C7D2FE"/>
</linearGradient>
</defs>
</svg>
